<svg width="117" height="21" viewBox="0 0 117 21" fill="none" xmlns="http://www.w3.org/2000/svg">
<path d="M9.83426 2.04894C10.0438 1.40402 10.9562 1.40402 11.1657 2.04894L12.7002 6.77163C12.7939 7.06005 13.0627 7.25532 13.366 7.25532H18.3317C19.0098 7.25532 19.2918 8.12305 18.7432 8.52163L14.7258 11.4404C14.4805 11.6187 14.3778 11.9346 14.4715 12.223L16.006 16.9457C16.2156 17.5907 15.4774 18.1269 14.9288 17.7284L10.9115 14.8096C10.6661 14.6313 10.3339 14.6313 10.0886 14.8096L6.07118 17.7284C5.52258 18.1269 4.78445 17.5907 4.99399 16.9457L6.52849 12.223C6.6222 11.9346 6.51954 11.6187 6.2742 11.4404L2.25684 8.52163C1.70824 8.12305 1.99018 7.25532 2.66828 7.25532H7.63402C7.93728 7.25532 8.20605 7.06005 8.29976 6.77163L9.83426 2.04894Z" fill="#FFD700"/>
<path d="M33.8343 2.04894C34.0438 1.40402 34.9562 1.40402 35.1657 2.04894L36.7002 6.77163C36.7939 7.06005 37.0627 7.25532 37.366 7.25532H42.3317C43.0098 7.25532 43.2918 8.12305 42.7432 8.52163L38.7258 11.4404C38.4805 11.6187 38.3778 11.9346 38.4715 12.223L40.006 16.9457C40.2156 17.5907 39.4774 18.1269 38.9288 17.7284L34.9115 14.8096C34.6661 14.6313 34.3339 14.6313 34.0886 14.8096L30.0712 17.7284C29.5226 18.1269 28.7844 17.5907 28.994 16.9457L30.5285 12.223C30.6222 11.9346 30.5195 11.6187 30.2742 11.4404L26.2568 8.52163C25.7082 8.12305 25.9902 7.25532 26.6683 7.25532H31.634C31.9373 7.25532 32.2061 7.06005 32.2998 6.77163L33.8343 2.04894Z" fill="#FFD700"/>
<path d="M57.8343 2.04894C58.0438 1.40402 58.9562 1.40402 59.1657 2.04894L60.7002 6.77163C60.7939 7.06005 61.0627 7.25532 61.366 7.25532H66.3317C67.0098 7.25532 67.2918 8.12305 66.7432 8.52163L62.7258 11.4404C62.4805 11.6187 62.3778 11.9346 62.4715 12.223L64.006 16.9457C64.2156 17.5907 63.4774 18.1269 62.9288 17.7284L58.9115 14.8096C58.6661 14.6313 58.3339 14.6313 58.0886 14.8096L54.0712 17.7284C53.5226 18.1269 52.7844 17.5907 52.994 16.9457L54.5285 12.223C54.6222 11.9346 54.5195 11.6187 54.2742 11.4404L50.2568 8.52163C49.7082 8.12305 49.9902 7.25532 50.6683 7.25532H55.634C55.9373 7.25532 56.2061 7.06005 56.2998 6.77163L57.8343 2.04894Z" fill="#FFD700"/>
<path d="M81.8343 2.04894C82.0438 1.40402 82.9562 1.40402 83.1657 2.04894L84.7002 6.77163C84.7939 7.06005 85.0627 7.25532 85.366 7.25532H90.3317C91.0098 7.25532 91.2918 8.12305 90.7432 8.52163L86.7258 11.4404C86.4805 11.6187 86.3778 11.9346 86.4715 12.223L88.006 16.9457C88.2156 17.5907 87.4774 18.1269 86.9288 17.7284L82.9115 14.8096C82.6661 14.6313 82.3339 14.6313 82.0886 14.8096L78.0712 17.7284C77.5226 18.1269 76.7844 17.5907 76.994 16.9457L78.5285 12.223C78.6222 11.9346 78.5195 11.6187 78.2742 11.4404L74.2568 8.52163C73.7082 8.12305 73.9902 7.25532 74.6683 7.25532H79.634C79.9373 7.25532 80.2061 7.06005 80.2998 6.77163L81.8343 2.04894Z" fill="#FFD700"/>
<path d="M105.834 2.04894C106.044 1.40402 106.956 1.40402 107.166 2.04894L108.7 6.77163C108.794 7.06005 109.063 7.25532 109.366 7.25532H114.332C115.01 7.25532 115.292 8.12305 114.743 8.52163L110.726 11.4404C110.48 11.6187 110.378 11.9346 110.472 12.223L112.006 16.9457C112.216 17.5907 111.477 18.1269 110.929 17.7284L106.911 14.8096C106.666 14.6313 106.334 14.6313 106.089 14.8096L102.071 17.7284C101.523 18.1269 100.784 17.5907 100.994 16.9457L102.528 12.223C102.622 11.9346 102.52 11.6187 102.274 11.4404L98.2568 8.52163C97.7082 8.12305 97.9902 7.25532 98.6683 7.25532H103.634C103.937 7.25532 104.206 7.06005 104.3 6.77163L105.834 2.04894Z" fill="#FFD700"/>
</svg>
